<?xml version="1.0" standalone="no"?>
<!DOCTYPE svg PUBLIC "-//W3C//DTD SVG 20010904//EN"
 "http://www.w3.org/TR/2001/REC-SVG-20010904/DTD/svg10.dtd">
<svg version="1.0" xmlns="http://www.w3.org/2000/svg"
 width="472.000000pt" height="55.000000pt" viewBox="0 0 472.000000 55.000000"
 preserveAspectRatio="xMidYMid meet">

<g transform="translate(0.000000,55.000000) scale(0.100000,-0.100000)"
fill="#000000" stroke="none">
<path d="M230 504 c-18 -27 -25 -54 -28 -100 -3 -45 -10 -68 -23 -80 -11 -9
-19 -30 -19 -46 0 -28 1 -29 22 -14 30 22 48 20 48 -4 0 -16 7 -20 35 -20 28
0 35 4 35 20 0 24 18 26 48 4 21 -15 22 -14 22 14 0 16 -8 37 -19 46 -13 12
-20 35 -23 80 -4 63 -38 136 -63 136 -5 0 -21 -16 -35 -36z m54 -9 c4 -11 -2
-15 -21 -15 -21 0 -24 2 -13 15 7 8 16 15 20 15 4 0 10 -7 14 -15z m32 -70 c7
-37 -1 -98 -17 -127 -15 -29 -58 -23 -70 10 -17 45 -22 79 -15 117 7 34 8 35
51 35 42 0 44 -1 51 -35z m35 -127 c10 -18 9 -20 -6 -15 -9 4 -19 7 -21 7 -2
0 -4 7 -4 15 0 22 18 18 31 -7z m-151 -3 c-7 -8 -16 -15 -21 -15 -5 0 -6 7 -3
15 4 8 13 15 21 15 13 0 13 -3 3 -15z m90 -35 c0 -5 -11 -10 -25 -10 -14 0
-25 5 -25 10 0 6 11 10 25 10 14 0 25 -4 25 -10z"/>
<path d="M240 415 c-17 -21 -5 -45 24 -45 27 0 42 26 25 46 -15 18 -33 18 -49
-1z m40 -21 c0 -8 -7 -14 -15 -14 -15 0 -21 21 -9 33 10 9 24 -2 24 -19z"/>
<path d="M60 403 c-27 -11 -30 -26 -30 -175 0 -125 -2 -148 -15 -148 -8 0 -15
-4 -15 -10 0 -5 25 -10 55 -10 30 0 55 5 55 10 0 6 -4 10 -10 10 -16 0 -11 26
8 43 10 10 28 17 39 17 11 0 26 7 34 16 7 9 21 13 35 10 16 -4 23 -1 27 14 7
26 37 26 44 0 4 -15 11 -18 27 -14 14 3 28 -1 35 -10 8 -9 23 -16 36 -16 23 0
55 -28 55 -48 0 -9 -41 -12 -144 -12 -86 0 -147 -4 -151 -10 -4 -7 62 -10 191
-10 136 0 195 -3 188 -10 -7 -7 -100 -10 -267 -8 -142 2 -257 0 -257 -5 0 -4
120 -6 268 -5 l267 3 3 23 c3 17 -2 22 -17 22 -20 0 -21 5 -21 148 0 81 -4
153 -9 161 -12 18 -125 28 -135 12 -5 -8 13 -11 58 -11 l66 0 0 -155 c0 -131
-2 -155 -15 -155 -8 0 -15 8 -15 18 0 24 -30 52 -56 52 -10 0 -28 7 -38 15
-11 8 -27 15 -37 15 -9 0 -19 7 -23 15 -7 19 -55 19 -62 0 -4 -8 -14 -15 -23
-15 -10 0 -26 -7 -37 -15 -10 -8 -28 -15 -40 -15 -24 0 -54 -29 -54 -53 0 -9
-7 -17 -15 -17 -13 0 -15 24 -15 155 l0 155 66 0 c41 0 63 4 59 10 -7 11 -89
12 -115 3z"/>
</g>
</svg>
