<?xml version="1.0" standalone="no"?>
<!DOCTYPE svg PUBLIC "-//W3C//DTD SVG 20010904//EN"
 "http://www.w3.org/TR/2001/REC-SVG-20010904/DTD/svg10.dtd">
<svg version="1.0" xmlns="http://www.w3.org/2000/svg"
 width="474.000000pt" height="55.000000pt" viewBox="0 0 474.000000 55.000000"
 preserveAspectRatio="xMidYMid meet">

<g transform="translate(0.000000,55.000000) scale(0.100000,-0.100000)"
fill="#000000" stroke="none">
<path d="M230 504 c-18 -27 -25 -54 -28 -100 -3 -45 -10 -68 -23 -80 -11 -9
-19 -30 -19 -46 0 -28 1 -29 22 -14 30 22 48 20 48 -4 0 -16 7 -20 35 -20 28
0 35 4 35 20 0 24 18 26 48 4 21 -15 22 -14 22 14 0 16 -8 37 -19 46 -13 12
-20 35 -23 80 -4 63 -38 136 -63 136 -5 0 -21 -16 -35 -36z m54 -9 c4 -11 -2
-15 -21 -15 -21 0 -24 2 -13 15 7 8 16 15 20 15 4 0 10 -7 14 -15z m32 -70 c7
-37 -1 -98 -17 -127 -15 -29 -58 -23 -70 10 -17 45 -22 79 -15 117 7 34 8 35
51 35 42 0 44 -1 51 -35z m35 -127 c10 -18 9 -20 -6 -15 -9 4 -19 7 -21 7 -2
0 -4 7 -4 15 0 22 18 18 31 -7z m-151 -3 c-7 -8 -16 -15 -21 -15 -5 0 -6 7 -3
15 4 8 13 15 21 15 13 0 13 -3 3 -15z m90 -35 c0 -5 -11 -10 -25 -10 -14 0
-25 5 -25 10 0 6 11 10 25 10 14 0 25 -4 25 -10z"/>
<path d="M240 415 c-17 -21 -5 -45 24 -45 27 0 42 26 25 46 -15 18 -33 18 -49
-1z m40 -21 c0 -8 -7 -14 -15 -14 -15 0 -21 21 -9 33 10 9 24 -2 24 -19z"/>
<path d="M734 490 c-95 -22 -154 -106 -154 -218 0 -87 17 -139 61 -183 61 -61
166 -74 268 -33 37 14 41 20 41 50 l0 34 -41 -27 c-59 -39 -150 -44 -198 -11
-51 35 -71 80 -71 163 0 83 20 128 71 163 48 33 139 28 198 -11 l42 -28 -3 38
c-3 36 -5 38 -58 55 -59 18 -106 21 -156 8z"/>
<path d="M1970 265 l0 -225 30 0 30 0 0 85 0 85 41 0 c65 0 125 20 155 51 22
23 29 40 32 89 4 55 2 61 -25 89 -37 37 -88 51 -185 51 l-78 0 0 -225z m204
154 c20 -16 26 -29 26 -59 0 -21 -3 -46 -6 -55 -10 -25 -59 -45 -114 -45 l-50
0 0 90 0 90 59 0 c44 0 65 -5 85 -21z"/>
<path d="M2960 264 l0 -227 109 5 c137 6 190 29 236 103 26 42 30 58 30 119
-1 158 -88 225 -292 226 l-83 0 0 -226z m230 154 c68 -35 85 -66 85 -153 0
-59 -4 -79 -21 -101 -40 -54 -68 -67 -154 -72 l-80 -5 0 177 0 176 63 0 c45 0
75 -6 107 -22z"/>
<path d="M1730 430 c0 -43 -3 -50 -20 -50 -15 0 -20 -7 -20 -25 0 -18 5 -25
19 -25 18 0 20 -10 23 -124 2 -105 6 -127 22 -145 37 -41 146 -40 146 2 0 20
-4 22 -44 19 -65 -6 -76 16 -76 145 l0 103 60 0 c57 0 60 1 60 25 0 24 -3 25
-60 25 l-60 0 0 50 c0 47 -2 50 -25 50 -23 0 -25 -3 -25 -50z"/>
<path d="M60 403 c-27 -11 -30 -26 -30 -175 0 -125 -2 -148 -15 -148 -8 0 -15
-4 -15 -10 0 -5 25 -10 55 -10 30 0 55 5 55 10 0 6 -4 10 -10 10 -16 0 -11 26
8 43 10 10 28 17 39 17 11 0 26 7 34 16 7 9 21 13 35 10 16 -4 23 -1 27 14 7
26 37 26 44 0 4 -15 11 -18 27 -14 14 3 28 -1 35 -10 8 -9 23 -16 36 -16 23 0
55 -28 55 -48 0 -9 -41 -12 -144 -12 -86 0 -147 -4 -151 -10 -4 -7 62 -10 191
-10 136 0 195 -3 188 -10 -7 -7 -100 -10 -267 -8 -142 2 -257 0 -257 -5 0 -4
120 -6 268 -5 l267 3 3 23 c3 17 -2 22 -17 22 -20 0 -21 5 -21 148 0 81 -4
153 -9 161 -12 18 -125 28 -135 12 -5 -8 13 -11 58 -11 l66 0 0 -155 c0 -131
-2 -155 -15 -155 -8 0 -15 8 -15 18 0 24 -30 52 -56 52 -10 0 -28 7 -38 15
-11 8 -27 15 -37 15 -9 0 -19 7 -23 15 -7 19 -55 19 -62 0 -4 -8 -14 -15 -23
-15 -10 0 -26 -7 -37 -15 -10 -8 -28 -15 -40 -15 -24 0 -54 -29 -54 -53 0 -9
-7 -17 -15 -17 -13 0 -15 24 -15 155 l0 155 66 0 c41 0 63 4 59 10 -7 11 -89
12 -115 3z"/>
<path d="M1106 380 c-66 -20 -99 -77 -99 -171 0 -103 46 -165 130 -176 99 -13
173 63 173 177 0 129 -90 204 -204 170z m117 -70 c68 -80 29 -230 -60 -230
-47 0 -72 16 -89 55 -28 69 -11 168 33 194 10 6 34 11 55 11 28 0 42 -7 61
-30z"/>
<path d="M1463 379 c-68 -20 -97 -106 -50 -153 13 -13 48 -29 78 -36 66 -15
99 -35 99 -59 0 -48 -83 -67 -157 -36 -45 19 -43 20 -43 -14 0 -27 4 -30 50
-41 128 -31 231 37 198 131 -10 30 -51 54 -113 64 -80 14 -110 57 -63 89 28
20 78 20 125 1 45 -19 43 -20 43 14 0 26 -5 30 -44 40 -52 13 -79 13 -123 0z"/>
<path d="M2405 376 c-65 -30 -95 -85 -95 -172 0 -129 100 -198 233 -163 45 12
52 18 55 42 4 32 5 31 -41 12 -77 -32 -158 -10 -183 50 -27 65 -27 65 112 65
l127 0 -6 50 c-10 82 -46 118 -124 126 -30 3 -60 -1 -78 -10z m110 -42 c16 -6
45 -54 45 -74 0 -6 -37 -10 -100 -10 -55 0 -100 2 -100 5 0 15 32 65 47 74 20
12 83 14 108 5z"/>
<path d="M3500 367 c-58 -30 -84 -80 -84 -162 0 -72 27 -126 76 -151 43 -22
116 -27 168 -12 37 11 46 18 48 41 4 32 5 31 -41 12 -42 -17 -94 -19 -131 -5
-30 11 -66 65 -66 98 0 22 2 22 126 22 l127 0 -7 48 c-7 56 -30 91 -77 114
-46 24 -87 22 -139 -5z m137 -49 c11 -13 23 -33 26 -45 5 -23 4 -23 -94 -23
-112 0 -122 9 -70 61 38 38 106 41 138 7z"/>
<path d="M3903 366 c-41 -24 -43 -24 -43 -5 0 14 -7 19 -25 19 l-25 0 0 -170
0 -170 25 0 25 0 0 130 0 130 33 20 c33 21 82 26 105 11 21 -13 32 -77 32
-188 l0 -103 25 0 25 0 0 130 0 130 33 20 c39 24 90 26 111 4 13 -12 16 -41
16 -150 l0 -134 30 0 30 0 0 118 c0 175 -18 219 -97 229 -29 3 -50 -2 -87 -22
l-49 -26 -22 21 c-36 33 -92 36 -142 6z"/>
<path d="M4486 380 c-66 -20 -99 -77 -99 -171 0 -103 46 -165 130 -176 99 -13
173 63 173 177 0 129 -90 204 -204 170z m117 -70 c68 -80 29 -230 -60 -230
-47 0 -72 16 -89 55 -28 69 -11 168 33 194 10 6 34 11 55 11 28 0 42 -7 61
-30z"/>
<path d="M2700 210 l0 -170 25 0 25 0 0 120 0 120 33 20 c20 13 50 20 80 20
47 0 48 1 45 28 -4 38 -48 41 -111 8 l-47 -25 0 24 c0 20 -5 25 -25 25 l-25 0
0 -170z"/>
</g>
</svg>
