<svg xmlns="http://www.w3.org/2000/svg" viewBox="0 0 300 300" width="50" height="auto" fill="black">
     <g transform="translate(0.000000,300.000000) scale(0.100000,-0.100000)"
                stroke="none">
                    <path d="M1060 2281 c-310 -179 -421 -247 -437 -272 l-23 -32 0 -469 c0 -381
                    3 -475 14 -502 15 -35 68 -70 335 -221 90 -51 107 -57 130 -49 14 6 175 97
                    358 202 183 106 337 192 344 192 11 0 180 -92 207 -113 10 -8 3 -17 -32 -38
                    -97 -61 -447 -259 -457 -259 -6 0 -38 16 -71 36 -34 19 -73 38 -88 40 -49 10
                    -170 -66 -170 -107 0 -9 13 -28 30 -42 48 -41 275 -167 300 -167 13 0 94 41
                    179 90 86 50 270 157 410 238 146 84 263 158 274 174 18 25 19 29 5 50 -18 28
                    -540 330 -580 336 -22 3 -101 -38 -378 -198 l-350 -202 -92 53 c-51 29 -105
                    61 -121 71 l-27 19 0 325 c0 178 3 324 8 324 4 0 52 -26 107 -58 l100 -57 5
                    -192 5 -192 29 -30 c42 -44 146 -96 177 -88 31 8 119 67 133 89 15 25 1 45
                    -67 92 l-57 40 0 180 c0 224 2 218 -141 300 -173 98 -184 106 -168 121 12 11
                    102 64 496 291 23 13 47 24 53 24 19 0 490 -274 490 -286 0 -11 -189 -124
                    -209 -124 -6 0 -66 32 -133 70 -67 39 -133 70 -147 70 -37 0 -213 -101 -231
                    -133 -14 -25 -13 -28 15 -57 16 -17 52 -42 80 -55 49 -24 51 -24 96 -8 l47 17
                    125 -72 c69 -40 136 -72 149 -72 36 0 570 312 588 343 14 25 13 28 -15 56 -17
                    16 -160 105 -320 196 -159 92 -340 196 -401 231 -61 35 -122 64 -135 64 -13 0
                    -211 -108 -439 -239z m869 -40 c232 -134 418 -248 414 -252 -4 -4 -123 -73
                    -263 -154 -140 -81 -264 -153 -276 -160 -19 -12 -34 -6 -157 66 -75 43 -142
                    79 -147 79 -6 0 -28 -9 -48 -21 l-37 -21 -66 38 -66 39 109 63 108 63 140 -82
                    c77 -44 143 -79 147 -77 5 1 74 41 155 87 l148 84 -293 169 c-160 93 -296 167
                    -302 166 -24 -7 -645 -371 -641 -376 3 -3 86 -51 183 -107 l178 -103 3 -203 2
                    -204 76 -41 75 -41 -69 -40 -69 -39 -77 44 -77 45 2 200 1 200 -117 69 c-65
                    38 -133 78 -152 89 l-33 21 0 -380 0 -379 140 -81 140 -80 338 195 c185 107
                    347 201 359 209 21 13 38 5 281 -135 142 -82 270 -155 285 -162 15 -7 26 -16
                    25 -20 -2 -5 -172 -106 -378 -225 -206 -118 -396 -229 -422 -244 l-47 -29
                    -148 86 c-81 47 -150 88 -153 90 -3 3 2 9 10 13 8 5 38 23 66 39 l50 29 87
                    -50 87 -50 295 170 295 169 -152 87 c-89 51 -158 84 -167 81 -8 -3 -166 -93
                    -351 -200 -184 -107 -342 -196 -350 -199 -9 -4 -102 44 -218 112 l-203 117 0
                    495 0 495 423 246 c233 136 425 246 429 245 3 0 195 -111 428 -245z"/>
                </g>
</svg>
