<svg xmlns="http://www.w3.org/2000/svg" viewBox="0 0 51 50"><g fill="none" fill-rule="evenodd"><path fill="#171d2a" fill-rule="nonzero" d="M25.541 49.957c6.666 0 12.933-2.596 17.647-7.31 4.714-4.714 7.31-10.981 7.31-17.647 0-6.666-2.596-12.933-7.31-17.647-4.714-4.714-10.98-7.31-17.647-7.31C11.78.043.584 11.239.584 25c0 6.666 2.596 12.933 7.31 17.647 4.714 4.714 10.98 7.31 17.647 7.31"/><path d="M1.448 25c0-6.435 2.506-12.486 7.056-17.037C13.055 3.413 19.106.907 25.541.907c6.436 0 12.486 2.506 17.037 7.056 4.55 4.551 7.056 10.602 7.056 17.037 0 13.285-10.808 24.093-24.093 24.093-6.436 0-12.486-2.506-17.037-7.056C3.954 37.486 1.448 31.435 1.448 25"/><path fill="#171d2a" fill-rule="nonzero" d="M25.541 1.9c-12.758 0-23.1 10.342-23.1 23.1 0 12.758 10.342 23.1 23.1 23.1 12.758 0 23.1-10.342 23.1-23.1 0-12.758-10.342-23.1-23.1-23.1"/><path fill="#FFFFFE" fill-rule="nonzero" d="M25.541 39.756c-8.15 0-14.756-6.607-14.756-14.756 0-8.15 6.607-14.756 14.756-14.756 8.15 0 14.756 6.607 14.756 14.756 0 8.15-6.607 14.756-14.756 14.756"/><path fill="#171d2a" fill-rule="nonzero" d="M11.734 25h13.807V11.193c-7.625 0-13.807 6.182-13.807 13.807m13.807 0v13.807c7.625 0 13.806-6.182 13.806-13.807H25.541"/><path fill="#FFFFFE" fill-rule="nonzero" d="M14.697 10.921c-.489-.475-1.245-.618-1.955-.178.136-.352.08-.71.008-.908-.305-.558-.412-.628-.664-.84-.816-.684-1.675-.1-2.289.633L6.83 13.163l4.664 3.914 3.13-3.729c.714-.852.825-1.696.073-2.427m11.617-1.68l1.601-4.246v4.246h1.218v-6.08h-1.829L25.64 7.514h.018l-1.664-4.353h-1.829v6.08h1.217V4.995l1.602 4.246h1.33m16.367 2.53l-2.292 3.244 3.553-1.686.941 1.161-5.593 2.711-1.104-1.374 2.2-3.216-.013-.017-3.604 1.483-1.115-1.365 3.815-4.907.941 1.162-2.389 3.124 3.65-1.567 1.01 1.247"/><path fill="#555C5E" fill-rule="nonzero" d="M10.446 10.503c.206-.246.673-.236.973.015.33.277.33.67.109.934l-1.762 2.1-1.102-.926 1.782-2.123m3.135 2.477l-1.858 2.214-1.165-.978 1.873-2.232c.211-.252.683-.325 1-.058.36.302.396.76.15 1.054"/></g></svg>