<svg xmlns="http://www.w3.org/2000/svg" viewBox="0 0 101 20"><path d="M95.232 16.733c0-1.478 1.188-2.678 2.65-2.678 1.463 0 2.65 1.2 2.65 2.678s-1.187 2.677-2.65 2.677c-1.462 0-2.65-1.199-2.65-2.677M10.721 9.642c0-1.696-.324-2.954-.973-3.774-.65-.819-1.633-1.228-2.956-1.228H5.385v10.371h1.077c1.469 0 2.545-.44 3.23-1.323.686-.882 1.03-2.23 1.03-4.046m5.017-.177c0 3.09-.822 5.471-2.466 7.142-1.644 1.672-3.955 2.508-6.934 2.508H.551V.6h6.192c2.872 0 5.09.76 6.653 2.28 1.561 1.52 2.343 3.714 2.343 6.585m16.033 9.65h4.606V.523h-4.606zm11.077-6.935c0 1.185.153 2.09.46 2.71.306.623.82.934 1.542.934.714 0 1.22-.311 1.514-.933.295-.622.441-1.526.441-2.711 0-1.18-.149-2.069-.447-2.67-.3-.601-.809-.903-1.532-.903-.707 0-1.212.3-1.519.897-.306.597-.46 1.489-.46 2.676m8.646 0c0 2.258-.586 4.02-1.76 5.283-1.174 1.264-2.818 1.896-4.93 1.896-2.026 0-3.638-.646-4.835-1.939-1.199-1.292-1.797-3.038-1.797-5.24 0-2.252.586-4.001 1.76-5.248 1.175-1.248 2.822-1.872 4.943-1.872 1.31 0 2.47.29 3.474.867 1.006.577 1.782 1.404 2.327 2.48.546 1.076.818 2.334.818 3.773m1.829 6.935h4.607V5.305h-4.607zm0-15.481h4.607V.522h-4.607zm13.94 11.958c.622 0 1.362-.16 2.226-.476v3.475c-.62.276-1.211.473-1.772.59-.562.119-1.22.178-1.974.178-1.547 0-2.661-.393-3.346-1.177-.682-.784-1.024-1.988-1.024-3.613V8.876h-1.612v-3.57h1.613V1.779l4.642-.816v4.343h2.94v3.57h-2.94v5.375c0 .894.417 1.341 1.248 1.341m10.66 0c.622 0 1.363-.16 2.227-.476v3.475c-.62.276-1.211.473-1.773.59-.562.119-1.218.178-1.973.178-1.547 0-2.662-.393-3.345-1.177-.683-.784-1.025-1.988-1.025-3.613V8.876h-1.614v-3.57h1.614v-3.58l4.641-.763v4.343h2.94v3.57h-2.94v5.375c0 .894.416 1.341 1.248 1.341m8.04-5.095c.062-.756.276-1.31.641-1.664.367-.353.82-.53 1.36-.53.591 0 1.06.199 1.408.598.35.398.533.93.548 1.596h-3.957zm6.496-3.808c-1.095-1.085-2.649-1.629-4.659-1.629-2.113 0-3.738.624-4.878 1.87-1.139 1.248-1.708 3.038-1.708 5.37 0 2.259.616 4 1.844 5.223 1.229 1.223 2.955 1.835 5.178 1.835 1.067 0 1.986-.074 2.756-.22.765-.145 1.505-.407 2.224-.785l-.708-3.113c-.522.216-1.019.382-1.488.49-.678.16-1.422.24-2.231.24-.888 0-1.59-.22-2.103-.658-.514-.44-.787-1.045-.819-1.817h8.234v-2.12c0-2.04-.548-3.603-1.643-4.687zm-70.608 3.808c.063-.756.277-1.31.642-1.664.366-.353.819-.53 1.36-.53.59 0 1.059.199 1.408.598.35.398.532.93.548 1.596h-3.958zm6.497-3.808C27.253 5.604 25.7 5.061 23.69 5.061c-2.113 0-3.738.624-4.877 1.87-1.138 1.248-1.709 3.038-1.709 5.37 0 2.259.615 4 1.845 5.223 1.228 1.223 2.954 1.835 5.177 1.835 1.068 0 1.986-.074 2.756-.22.765-.145 1.506-.407 2.225-.785l-.708-3.113c-.523.216-1.02.382-1.488.49-.68.16-1.422.24-2.232.24-.887 0-1.589-.22-2.102-.658-.515-.44-.788-1.045-.82-1.817h8.234v-2.12c0-2.04-.547-3.603-1.642-4.687z" fill="#171d2a" fill-rule="nonzero"/></svg>