<svg xmlns="http://www.w3.org/2000/svg" width="175" height="38" fill="none"><path fill="#6E58F1" d="M0 4.66A4.66 4.66 0 0 1 4.66 0h27.717a4.66 4.66 0 0 1 4.66 4.66v27.717a4.66 4.66 0 0 1-4.66 4.66H4.66A4.66 4.66 0 0 1 0 32.377V4.66z"/><path fill="#fff" d="M5.35 15.671c0-3.194 2.58-5.784 5.762-5.784h.332a2.442 2.442 0 0 1 2.437 2.447v6.675a2.442 2.442 0 0 1-2.437 2.447h-.332c-3.182 0-5.762-2.59-5.762-5.785zm9.838-4.771c0-.62.364-1.183.928-1.437l8.388-3.773a1.569 1.569 0 0 1 2.21 1.437v17.197a1.57 1.57 0 0 1-2.225 1.43L16.1 21.87a1.575 1.575 0 0 1-.912-1.43v-.796c0-.655.404-1.241 1.015-1.472l4.675-1.772c.677-.256.677-1.216 0-1.473l-4.675-1.771a1.574 1.574 0 0 1-1.014-1.473V10.9zm16.5 6.136v-.35a3.5 3.5 0 0 0-3.493-3.506.175.175 0 0 0-.175.175v7.012c0 .096.079.175.175.175a3.5 3.5 0 0 0 3.493-3.506zM11.1 23.686c0-.345.278-.623.62-.623h3.249c.343 0 .62.279.62.623v5.537a2.25 2.25 0 0 1-2.244 2.254 2.25 2.25 0 0 1-2.245-2.254v-5.537zm43.615-4.25c1.543.173 2.4.972 2.4 2.27a1.943 1.943 0 0 1-1.95 1.923c-.943 0-1.693-.237-2.422-1.167L50 24.494c1.522 1.686 3.343 2.356 5.165 2.356 2.808 0 5.401-2.248 5.401-5.382 0-3.113-2.25-4.972-4.972-5.145-1.693-.108-2.23-.778-2.23-1.513 0-.887.601-1.427 1.48-1.427.557 0 1.264.346 1.693.8l2.615-1.924c-1.222-1.47-2.722-2.075-4.308-2.075-2.208 0-4.694 1.924-4.694 4.647 0 2.53 1.8 4.28 4.565 4.605zm18.189 1.686c0-1.449 1.008-2.637 2.337-2.637 1.221 0 2.228.972 2.228 2.637v5.447h3.023v-5.447c0-3.156-1.608-5.707-4.93-5.707-1.114 0-2.83.346-3.858 1.73-.643-.995-2.079-1.73-3.665-1.73-.943 0-2.165.389-2.657.994v-.756h-3.044v10.916h3.044v-5.447c0-1.449 1.007-2.637 2.143-2.637 1.371 0 2.336.756 2.336 2.637v5.447h3.043v-5.447zm17.091-5.469v.756c-.471-.518-1.671-.994-2.636-.994-2.893 0-5.315 2.55-5.315 5.707 0 3.113 2.357 5.685 5.315 5.685.986 0 2.165-.39 2.636-1.016v.778h3.044V15.653h-3.044zm-2.336 8.106c-1.393 0-2.529-1.08-2.529-2.637 0-1.535 1.136-2.637 2.53-2.637 1.414 0 2.464 1.102 2.464 2.637 0 1.556-1.05 2.637-2.465 2.637zm13.713-8.301c-.279-.043-.493-.043-.75-.043-.836 0-1.736.28-2.4.994v-.756h-3.044v10.916h3.043v-5.447c0-1.751 1.007-2.637 2.186-2.637.343 0 .665.043.965.15v-3.177zm7.685 3.027v-2.832h-2.572v-3.654l-3.044 2.227v1.427h-1.629v2.832h1.629v3.566c0 2.832 2.315 4.756 5.551 4.756v-3.048c-1.393 0-2.507-.562-2.507-1.794v-3.48h2.572zm1.4-8.02v16.104h3.043V10.465h-3.043zm12.949 12.192c-.493.778-1.414 1.102-2.336 1.102-.321 0-.621-.022-.9-.13l6.044-4.366c-.665-2.032-2.722-3.848-5.401-3.848-3.108 0-5.615 2.55-5.615 5.707 0 3.113 2.614 5.685 5.872 5.685 1.929 0 3.837-.886 4.758-2.27l-2.422-1.88zm-5.122-1.535c0-1.535 1.136-2.637 2.529-2.637a2.43 2.43 0 0 1 1.5.518l-3.943 2.832a2.478 2.478 0 0 1-.086-.713zm16.963-5.469v.756c-.472-.518-1.672-.994-2.636-.994-2.894 0-5.316 2.55-5.316 5.707 0 3.113 2.358 5.685 5.316 5.685.985 0 2.164-.39 2.636-1.016v.778h3.043V15.653h-3.043zm-2.336 8.106c-1.394 0-2.529-1.08-2.529-2.637 0-1.535 1.135-2.637 2.529-2.637 1.414 0 2.464 1.102 2.464 2.637 0 1.556-1.05 2.637-2.464 2.637zm15.02-13.294v5.944c-.472-.518-1.672-.994-2.637-.994-2.893 0-5.315 2.55-5.315 5.707 0 3.113 2.358 5.685 5.315 5.685.986 0 2.165-.39 2.637-1.016v.778h3.043V10.465h-3.043zm-2.337 13.294c-1.393 0-2.529-1.08-2.529-2.637 0-1.535 1.136-2.637 2.529-2.637 1.415 0 2.465 1.102 2.465 2.637 0 1.556-1.05 2.637-2.465 2.637zm9.384-.216c-.986 0-1.651.735-1.651 1.664 0 .887.665 1.643 1.651 1.643 1.007 0 1.65-.756 1.65-1.643 0-.93-.665-1.664-1.65-1.664zm11.518-7.89v.756c-.472-.518-1.672-.994-2.636-.994-2.894 0-5.316 2.55-5.316 5.707 0 3.113 2.358 5.685 5.316 5.685.985 0 2.164-.39 2.636-1.016v.778h3.043V15.653h-3.043zm-2.336 8.106c-1.394 0-2.529-1.08-2.529-2.637 0-1.535 1.135-2.637 2.529-2.637 1.414 0 2.464 1.102 2.464 2.637 0 1.556-1.05 2.637-2.464 2.637zm9.018-10.03c1.029 0 1.822-.8 1.822-1.751 0-.886-.793-1.686-1.822-1.686-.943 0-1.757.821-1.757 1.686 0 .95.814 1.75 1.757 1.75zm1.544 1.924h-3.044v10.916h3.044V15.653z"/></svg>